<svg viewBox="0 0 144 144" fill="none" xmlns="http://www.w3.org/2000/svg">
<path d="M24 90C25.5913 90 27.1174 90.6321 28.2426 91.7574C29.3679 92.8826 30 94.4087 30 96V114H48C49.5913 114 51.1174 114.632 52.2426 115.757C53.3679 116.883 54 118.409 54 120C54 121.591 53.3679 123.117 52.2426 124.243C51.1174 125.368 49.5913 126 48 126H30C26.8174 126 23.7652 124.736 21.5147 122.485C19.2643 120.235 18 117.183 18 114V96C18 94.4087 18.6321 92.8826 19.7574 91.7574C20.8826 90.6321 22.4087 90 24 90ZM120 90C121.47 90.0002 122.888 90.5397 123.986 91.5163C125.084 92.4928 125.786 93.8385 125.958 95.298L126 96V114C126.001 117.027 124.858 119.943 122.799 122.163C120.74 124.383 117.919 125.743 114.9 125.97L114 126H96C94.4707 125.998 92.9998 125.413 91.8878 124.363C90.7758 123.313 90.1066 121.878 90.017 120.352C89.9273 118.825 90.424 117.322 91.4056 116.149C92.3871 114.976 93.7794 114.223 95.298 114.042L96 114H114V96C114 94.4087 114.632 92.8826 115.757 91.7574C116.883 90.6321 118.409 90 120 90ZM114 18C117.027 17.999 119.943 19.1424 122.163 21.201C124.383 23.2595 125.743 26.0811 125.97 29.1L126 30V48C125.998 49.5293 125.413 51.0002 124.363 52.1122C123.313 53.2242 121.878 53.8934 120.352 53.983C118.825 54.0727 117.322 53.576 116.149 52.5944C114.976 51.6129 114.223 50.2206 114.042 48.702L114 48V30H96C94.4707 29.9983 92.9998 29.4127 91.8878 28.3629C90.7758 27.3131 90.1066 25.8783 90.017 24.3516C89.9273 22.825 90.424 21.3217 91.4056 20.149C92.3871 18.9763 93.7794 18.2226 95.298 18.042L96 18H114ZM48 18C49.5293 18.0017 51.0002 18.5873 52.1122 19.6371C53.2242 20.6869 53.8934 22.1217 53.983 23.6484C54.0727 25.175 53.576 26.6783 52.5944 27.851C51.6129 29.0237 50.2206 29.7774 48.702 29.958L48 30H30V48C29.9983 49.5293 29.4127 51.0002 28.3629 52.1122C27.3131 53.2242 25.8783 53.8934 24.3516 53.983C22.825 54.0727 21.3217 53.576 20.149 52.5944C18.9763 51.6129 18.2226 50.2206 18.042 48.702L18 48V30C17.999 26.9725 19.1424 24.0566 21.201 21.8367C23.2595 19.6168 26.0811 18.2571 29.1 18.03L30 18H48Z" fill="black"/>
</svg>
