<svg width="69" height="69" viewBox="0 0 69 69" fill="none" xmlns="http://www.w3.org/2000/svg">
<path fill-rule="evenodd" clip-rule="evenodd" d="M34.5 5.75C41.3625 5.75 47.9439 8.47611 52.7964 13.3286C57.6489 18.1811 60.375 24.7625 60.375 31.625V56.4075C60.375 61.6688 54.7227 64.9951 50.1256 62.4421L49.082 61.8815C46.207 60.4095 43.953 59.9265 40.7761 61.5538L40.2069 61.8643C38.5684 62.8003 36.7247 63.3187 34.8385 63.3739C32.9523 63.4291 31.0815 63.0192 29.3911 62.1805L28.7931 61.8643C25.1218 59.7655 22.5659 60.3923 18.8744 62.4393C14.2744 64.998 8.625 61.6716 8.625 56.4104V31.625C8.625 24.7625 11.3511 18.1811 16.2036 13.3286C21.0561 8.47611 27.6375 5.75 34.5 5.75ZM24.4375 25.875C23.2938 25.875 22.1969 26.3294 21.3881 27.1381C20.5794 27.9469 20.125 29.0438 20.125 30.1875C20.125 31.3312 20.5794 32.4282 21.3881 33.2369C22.1969 34.0457 23.2938 34.5 24.4375 34.5C25.5812 34.5 26.6781 34.0457 27.4869 33.2369C28.2956 32.4282 28.75 31.3312 28.75 30.1875C28.75 29.0438 28.2956 27.9469 27.4869 27.1381C26.6781 26.3294 25.5812 25.875 24.4375 25.875ZM44.5625 25.875C43.4188 25.875 42.3219 26.3294 41.5131 27.1381C40.7043 27.9469 40.25 29.0438 40.25 30.1875C40.25 31.3312 40.7043 32.4282 41.5131 33.2369C42.3219 34.0457 43.4188 34.5 44.5625 34.5C45.7062 34.5 46.8031 34.0457 47.6119 33.2369C48.4206 32.4282 48.875 31.3312 48.875 30.1875C48.875 29.0438 48.4206 27.9469 47.6119 27.1381C46.8031 26.3294 45.7062 25.875 44.5625 25.875Z" fill="#F6F6F6"/>
</svg>
