<svg width="32pt" height="32pt" viewBox="0 0 26 23" xmlns="http://www.w3.org/2000/svg">
  <g stroke-linecap="round" fill-rule="evenodd" fill="#f6f6f6">
    <!-- Čára 1: Y +0 -->
    <path class="line top-line" d="M 1.636 0 L 2.271 0.195 A 23.196 23.196 0 0 0 4.823 0.689 Q 7.595 1.082 11.559 1.155 A 101.615 101.615 0 0 0 13.428 1.172 Q 18.359 1.172 23.706 0 A 25.554 25.554 0 0 0 23.047 1.735 A 19.693 19.693 0 0 0 22.62 3.174 A 18.072 18.072 0 0 0 22.119 6.152 L 21.509 6.006 Q 16.431 5.151 11.06 5.151 L 10.205 5.151 Q 4.956 5.151 0 6.152 A 10.579 10.579 0 0 0 0.269 5.566 Q 0.532 4.947 0.83 4.085 A 37.71 37.71 0 0 0 0.928 3.796 A 11.87 11.87 0 0 0 1.268 2.547 Q 1.42 1.847 1.525 1.034 A 24.407 24.407 0 0 0 1.636 0 Z" />

    <!-- Čára 2: Y +7 -->
    <path class="line middle-line" d="M 1.636 7 L 2.271 7.195 A 23.196 23.196 0 0 0 4.823 7.689 Q 7.595 8.082 11.559 8.155 A 101.615 101.615 0 0 0 13.428 8.172 Q 18.359 8.172 23.706 7 A 25.554 25.554 0 0 0 23.047 8.735 A 19.693 19.693 0 0 0 22.62 10.174 A 18.072 18.072 0 0 0 22.119 13.152 L 21.509 13.006 Q 16.431 12.151 11.06 12.151 L 10.205 12.151 Q 4.956 12.151 0 13.152 A 10.579 10.579 0 0 0 0.269 12.566 Q 0.532 11.947 0.83 11.085 A 37.71 37.71 0 0 0 0.928 10.796 A 11.87 11.87 0 0 0 1.268 9.547 Q 1.42 8.847 1.525 8.034 A 24.407 24.407 0 0 0 1.636 7 Z" />

    <!-- Čára 3: Y +14 -->
    <path class="line bottom-line" d="M 1.636 14 L 2.271 14.195 A 23.196 23.196 0 0 0 4.823 14.689 Q 7.595 15.082 11.559 15.155 A 101.615 101.615 0 0 0 13.428 15.172 Q 18.359 15.172 23.706 14 A 25.554 25.554 0 0 0 23.047 15.735 A 19.693 19.693 0 0 0 22.62 17.174 A 18.072 18.072 0 0 0 22.119 20.152 L 21.509 20.006 Q 16.431 19.151 11.06 19.151 L 10.205 19.151 Q 4.956 19.151 0 20.152 A 10.579 10.579 0 0 0 0.269 19.566 Q 0.532 18.947 0.83 18.085 A 37.71 37.71 0 0 0 0.928 17.796 A 11.87 11.87 0 0 0 1.268 16.547 Q 1.42 15.847 1.525 15.034 A 24.407 24.407 0 0 0 1.636 14 Z" />
  </g>
</svg>
