<?xml version="1.0" encoding="UTF-8"?>
<svg id="Vrstva_1" data-name="Vrstva 1" xmlns="http://www.w3.org/2000/svg" viewBox="0 0 465.47 494.73">
  <polygon points="451.52 333.95 229.94 486.29 10.34 337.91 8.36 25.32 451.52 25.32 451.52 333.95" style="fill: #4a3728;"/>
  <path d="M27.69,43.44v283.78l197.7,134.91V43.44H27.69ZM170,344.95l-86.77-56.53V99.97h86.77v244.98Z" style="fill: #a67c52;"/>
  <polygon points="378.25 44.55 378.25 197.96 291.48 197.96 291.48 44.55 236.65 44.55 236.65 463.23 335.43 395.83 291.48 395.83 291.48 254.5 378.25 254.5 378.25 366.61 434.35 328.33 434.35 44.55 378.25 44.55" style="fill: #754c24; opacity: .6;"/>
  <polygon points="10.34 24.59 451.14 26.48 451.14 337.41 230.74 486.29 10.34 337.41 10.34 24.59" style="fill: none; stroke: gray; stroke-miterlimit: 10; stroke-width: 14px;"/>
  <g style="opacity: .49;">
    <rect x="70.42" y="262.53" width="125.68" height="37.61" transform="translate(-136.47 125.91) rotate(-34.7)" style="fill: #fff;"/>
    <rect x="66.77" y="294.24" width="20.35" height="52.58" rx="1.31" ry="1.31" transform="translate(-168.8 100.82) rotate(-34.7)" style="fill: #fff;"/>
    <path d="M178.89,230.19l18.65,26.93c4.9,7.08,14.73,8.76,21.91,3.73l61.51-43.03h0c-4.23-1.86-7.84-4.86-10.44-8.66l-21.38-31.31c-2.05-3-3.41-6.42-3.98-10.03l-.35-2.2-61.77,42.78c-7.18,4.97-9.03,14.72-4.15,21.78Z" style="fill: #fff;"/>
    <path d="M311.55,214.73l59.32-41.09-13.53-9.41c-8.27-5.75-15.46-12.93-21.22-21.19h0c-6.25-8.97-11.64-18.48-14.06-29.14l-3.92-17.19-59.71,41.51c-12.4,8.61-15.46,25.64-6.84,38.02l22.02,31.64c8.6,12.36,25.58,15.42,37.95,6.85Z" style="fill: #fff;"/>
    <path d="M320.94,94.83l26.05-18.04.02.11c3.3,15.64,9.69,30.46,18.79,43.59h0c9.09,13.13,20.71,24.31,34.17,32.9l.06.04-26.09,18.08-.82-.45c-13.95-7.58-25.92-18.33-34.96-31.38h0c-9.08-13.11-14.94-28.18-17.11-43.98l-.12-.88Z" style="fill: #fff;"/>
    <g>
      <path d="M400.24,137.4c-3.47,2.41-14.86-8.01-25.42-23.27-10.57-15.26-16.32-29.58-12.84-31.98,3.25-2.25,13.41,6.72,23.36,20.37-14.05-19.51-28.79-32.34-33.63-28.99-5.08,3.52,2.68,23.52,17.33,44.68,14.65,21.16,30.65,35.45,35.73,31.93,4.85-3.36-2.02-21.74-15.39-41.81,9.3,14.13,14.13,26.82,10.88,29.07Z" style="fill: #fff;"/>
      <path d="M387.93,106.21c-.17-.25-.33-.49-.5-.74,0,0,0-.01-.01-.02.18.26.34.51.52.76Z" style="fill: #fff;"/>
    </g>
  </g>
</svg>