<?xml version="1.0" encoding="UTF-8"?>
<svg id="Vrstva_1" data-name="Vrstva 1" xmlns="http://www.w3.org/2000/svg" viewBox="0 0 349.29 377.29">
  <path d="M63.25,10.19h218.94l53.67,46.62c-9.5,16.7-18.28,37.94-18.28,60.21,0,46.21,18.28,81.68,18.28,112.83,0,103.11-127.58,102.86-157.54,134.53-29.58-31.67-167.01-31.67-167.01-134.53,0-31.14,18.58-66.63,18.58-112.83,0-22.21-8.76-43.54-18.58-60.21L63.25,10.19Z" style="fill: #e8e336; stroke: #5e2d11; stroke-miterlimit: 10; stroke-width: 15px;"/>
  <polygon points="94.44 258.26 112.68 277.67 123.36 267.12 150.46 278.98 172.74 257.48 143.82 246.93 217.82 170.32 244.92 181 265.31 160.88 237.69 149.02 249.74 136.22 277 147.26 296.84 127.07 269.48 115.05 288.14 96.81 269.25 76.45 251.56 94.92 240.52 66.03 220.3 87.43 231.5 117.69 219.38 129.8 207.59 99.97 187.92 121.46 198.9 149.38 125.12 227.12 114.6 198.49 93.76 217.94 104.8 247.84 94.44 258.26" style="fill: #1c1b07;"/>
  <rect x="159.51" y="169.97" width="38.63" height="39.23" transform="translate(-81.68 181.98) rotate(-45)" style="fill: #eded2e;"/>
  <polygon points="248.22 280.22 268.93 261.73 258.21 250.32 271.28 222.4 249.47 198.62 237.71 228.47 159.84 149.35 171.69 121.39 151.25 99.62 138.17 128.08 125.15 115.19 137.37 87.07 116.85 65.87 103.61 94.06 85.09 74.14 63.39 93.29 82.16 112.2 51.77 122.94 73.53 144.58 105.36 133.71 117.66 146.65 86.26 158.15 108.14 179.22 137.52 168.51 216.58 247.43 186.48 257.64 206.19 279.87 237.63 269.16 248.22 280.22" style="fill: #1c1b07;"/>
</svg>