<?xml version="1.0" encoding="UTF-8"?>
<svg id="Vrstva_1" data-name="Vrstva 1" xmlns="http://www.w3.org/2000/svg" viewBox="0 0 349.29 377.29">
  <path d="M65.18,15.58h216.3l53.02,46.06c-9.39,16.5-18.06,37.48-18.06,59.49,0,45.66,18.06,80.7,18.06,111.47,0,101.87-131.8,101.62-161.4,132.91-29.22-31.29-159.23-31.29-159.23-132.91,0-30.77,18.36-65.83,18.36-111.47,0-21.94-8.66-43.01-18.36-59.49L65.18,15.58Z" style="fill: #42210b; stroke: #5e2d11; stroke-miterlimit: 10; stroke-width: 15px;"/>
  <path d="M69.82,21.71h207.3l50.82,44.19c-35.37,46.1-3,122.62,0,164.03,0,97.74-126.32,97.5-154.69,127.52-28.01-30.02-152.6-30.02-152.6-127.53,3-41.41,36.03-118.05,0-164.03l49.18-44.19Z" style="fill: #ea2a39;"/>
  <path d="M327.94,235.78c0,97.74-126.32,91.65-154.69,121.67-28.01-30.02-152.6-24.17-152.6-121.67h307.29Z" style="fill: #fff4ee;"/>
  <polygon points="126.43 199.91 99.25 167.76 121.32 144.99 151.8 173.25 126.43 199.91" style="fill: #fff4ee; stroke: #59272b; stroke-miterlimit: 10; stroke-width: 2px;"/>
  <polygon points="236.86 191.24 188.49 204.9 175.76 172.22 222.24 153.98 236.86 191.24" style="fill: #fff4ee; stroke: #59272b; stroke-miterlimit: 10; stroke-width: 2px;"/>
  <polygon points="233.25 197.28 264.36 159.52 216.1 151.46 233.25 197.28" style="fill: #fff4ee; stroke: #59272b; stroke-miterlimit: 10; stroke-width: 2px;"/>
  <polygon points="241.95 193.52 273.06 155.76 224.8 147.7 241.95 193.52" style="fill: #fff4ee; stroke: #59272b; stroke-miterlimit: 10; stroke-width: 2px;"/>
  <circle cx="261.73" cy="159.75" r="25.05" style="fill: #fff4ee; stroke: #59272b; stroke-miterlimit: 10; stroke-width: 2px;"/>
  <circle cx="262.02" cy="159.64" r="21" style="fill: #fff4ee; stroke: #59272b; stroke-miterlimit: 10; stroke-width: 2px;"/>
  <polygon points="150.1 199.95 192.12 207.01 177.22 167.09 150.1 199.95" style="fill: #fff4ee; stroke: #59272b; stroke-miterlimit: 10; stroke-width: 2px;"/>
  <polygon points="142.9 202.39 184.92 209.45 170.02 169.53 142.9 202.39" style="fill: #fff4ee; stroke: #59272b; stroke-miterlimit: 10; stroke-width: 2px;"/>
  <polygon points="164.41 210.28 152.75 169.29 123.08 199.88 164.41 210.28" style="fill: #fff4ee; stroke: #59272b; stroke-miterlimit: 10; stroke-width: 2px;"/>
  <circle cx="156.07" cy="202.06" r="21.36" style="fill: #fff4ee; stroke: #59272b; stroke-miterlimit: 10; stroke-width: 2px;"/>
  <polygon points="99.43 174.39 126.04 145.14 87.4 136.73 99.43 174.39" style="fill: #fff4ee; stroke: #59272b; stroke-miterlimit: 10; stroke-width: 2px;"/>
  <path d="M96.55,165.38l20.91-22.72-1.51-14.79-14.14-25.96c-.72-1.87-2.74-2.88-4.66-2.33l-2.91,1.3c-1.75,1.2-2.61,2.62-1.72,4.75l6.99,15.12-12.47-17.9c-1.14-1.77-3.49-2.29-5.28-1.18l-2.26,1.37c-1.87,1.16-2.4,3.66-1.15,5.47l9.63,15.03-10.73-11.16c-1.32-1.38-3.45-1.59-5.01-.5l-1.83,1.41c-1.9,1.33-2.21,4.01-.67,5.74l12.78,15.64-11.93-10.99c-1.48-1.17-3.58-1.1-4.98.16l-1.66,1.5c-1.75,1.58-1.7,4.34.12,5.85l32.49,34.19Z" style="fill: #fff4ee; stroke: #59272b; stroke-miterlimit: 10; stroke-width: 2px;"/>
  <polygon points="217.76 50.62 111.99 120.58 105.74 108.86 210.95 39.93 228.87 36.52 217.76 50.62" style="fill: #fff4ee; stroke: #59272b; stroke-miterlimit: 10; stroke-width: 2px;"/>
  <rect x="95.6" y="102.9" width="42.63" height="9.55" rx="1.48" ry="1.48" transform="translate(144.97 -48.77) rotate(57.52)" style="fill: #fff4ee; stroke: #59272b; stroke-miterlimit: 10; stroke-width: 2px;"/>
</svg>