<?xml version="1.0" encoding="UTF-8"?>
<svg id="Vrstva_1" data-name="Vrstva 1" xmlns="http://www.w3.org/2000/svg" xmlns:xlink="http://www.w3.org/1999/xlink" viewBox="0 0 349.29 377.29">
  <defs>
    <linearGradient id="Nepojmenovaný_přechod_3" data-name="Nepojmenovaný přechod 3" x1="15.04" y1="185.04" x2="331.96" y2="185.04" gradientUnits="userSpaceOnUse">
      <stop offset=".5" stop-color="#e8e456"/>
      <stop offset=".5" stop-color="#2d2dd6"/>
    </linearGradient>
  </defs>
  <path d="M62.85,7.5h221.82l54.37,47.23c-37.85,49.28-3.21,131.05,0,175.31,0,104.47-135.17,104.21-165.52,136.3-29.97-32.09-163.29-32.09-163.29-136.3,3.21-44.26,38.56-126.17,0-175.31L62.85,7.5Z" style="fill: #42210b; stroke: #5e2d11; stroke-miterlimit: 10; stroke-width: 15px;"/>
  <path d="M67.29,12.11h213.79l52.41,45.52c-36.48,47.49-3.09,126.31,0,168.97,0,100.69-130.28,100.44-159.54,131.37-28.88-30.92-157.39-30.92-157.39-131.37,3.1-42.66,37.16-121.6,0-168.97L67.29,12.11Z" style="fill: url(#Nepojmenovaný_přechod_3);"/>
  <path d="M226.44,145.87l-20.7,93.81c1.84,13.27,29.05,39.16,43.01,11.54-8.95-1.98-23.16-9.38-27.76-12.11,8.9,4,46.58,23.6,57.09-8.81-13.21,1.46-36.21-3.55-47.32-8.23,15.06,3.83,49.55,16.06,64.76-18.07-17.86,1.4-46.02,2.2-57.3,1.03,16.42-1.06,76.79,6.95,70.56-39.48-9.19,12.12-41.13,22.09-54.26,24.96,10.08-3.46,69.61-18.6,47.4-52.16-5.67,14.83-42.71,32.58-53.07,34.95,8.48-3.94,69.84-26.59,41.8-60.19-3.61,13.12-6.19,16.28-48.11,47.05,29.52-23.97,58.55-56.33,35.74-76.05-8.39,19.66-19.68,35.25-51.84,61.77Z" style="fill: #e8e456; stroke: #d1cc2c; stroke-miterlimit: 10; stroke-width: 2px;"/>
  <path d="M179.15,223.09c-2.07-12.83,19.07-57.36,49.75-82.28,3.62-3.28,7.81-11.44,9.43-13.94,3.11,5.74,5.42,17.53-3.04,25.47,10.79-5.57,24.44,3.53,1.18,20.14,26.09-13.69,27.93,4.28,3.33,15.52,25.22-8.74,24.83,9.16.27,15.96,18.98-2.95,15.35,15.74-10.53,14.36,24.48,4.55,10.17,12.61-9.68,12.99,33.43,12.03-35.64,20.87-40.71-8.22Z" style="fill: #e8e456; stroke: #d1cc2c; stroke-miterlimit: 10; stroke-width: 2px;"/>
  <path d="M120.71,145.98l20.7,93.81c-1.84,13.27-29.05,39.16-43.01,11.54,8.95-1.98,23.16-9.38,27.76-12.11-8.9,4-46.58,23.6-57.09-8.81,13.21,1.46,36.21-3.55,47.32-8.23-15.06,3.83-49.55,16.06-64.76-18.07,17.86,1.4,46.02,2.2,57.3,1.03-16.42-1.06-76.79,6.95-70.56-39.48,9.19,12.12,41.13,22.09,54.26,24.96-10.08-3.46-69.61-18.6-47.4-52.16,5.67,14.83,42.71,32.58,53.07,34.95-8.48-3.94-69.84-26.59-41.8-60.19,3.61,13.12,6.19,16.28,48.11,47.05-29.52-23.97-58.55-56.33-35.74-76.05,8.39,19.66,19.68,35.25,51.84,61.77Z" style="fill: #2d2dd6; stroke: #1c336b; stroke-miterlimit: 10; stroke-width: 2px;"/>
  <path d="M168,223.2c2.07-12.83-19.07-57.36-49.75-82.28-3.62-3.28-7.81-11.44-9.43-13.94-3.11,5.74-5.42,17.53,3.04,25.47-10.79-5.57-24.44,3.53-1.18,20.14-26.09-13.69-27.93,4.28-3.33,15.52-25.22-8.74-24.83,9.16-.27,15.96-18.98-2.95-15.35,15.74,10.53,14.36-24.48,4.55-10.17,12.61,9.68,12.99-33.43,12.03,35.64,20.87,40.71-8.22Z" style="fill: #2d2dd6; stroke: #1c336b; stroke-miterlimit: 10; stroke-width: 2px;"/>
</svg>