<?xml version="1.0" encoding="UTF-8"?>
<svg id="Vrstva_1" data-name="Vrstva 1" xmlns="http://www.w3.org/2000/svg" viewBox="0 0 349.29 377.29">
  <path d="M63.73,11.76h216.94l53.18,46.19c-9.42,16.55-18.12,37.59-18.12,59.66,0,45.79,18.12,80.94,18.12,111.8,0,102.17-132.19,101.92-161.88,133.3-29.31-31.38-159.7-31.38-159.7-133.3,0-30.86,18.41-66.02,18.41-111.8,0-22.01-8.68-43.14-18.41-59.66L63.73,11.76Z" style="fill: #fff4ee; stroke: #5e2d11; stroke-miterlimit: 10; stroke-width: 15px;"/>
  <circle cx="173.12" cy="172.95" r="88.08" style="fill: #006837; stroke: #004924; stroke-miterlimit: 10; stroke-width: 3px;"/>
  <path d="M173.39,45.04l-48.31,32.4c-5.01,3.36-6.15,10.24-2.51,15.04l29.64,42.81-47.64-34.04c-3.82-2.57-8.88-2.35-12.46.55l-39,31.65,17.83,51.62c1.8,5.22,7.35,8.14,12.67,6.68l57.12-17.89-53.08,37.51c-4.04,2.57-5.81,7.56-4.32,12.11l16.52,50.24,47.04-.34c4.82-.03,8.99-3.35,10.11-8.04l16.85-70.39,18.38,70.74c1.17,4.52,5.19,7.71,9.85,7.84l46.26,1.27,14.99-52.5c1.19-4.17-.31-8.64-3.77-11.25l-52.03-37.56,55.2,17.03c5.49,1.9,11.48-1.03,13.35-6.53l17.67-52.06-42.52-30.55c-3.7-2.66-8.69-2.62-12.35.09l-44.67,33.09,26.79-42.65c2.93-4.66,1.75-10.79-2.69-14.03l-44.93-32.83Z" style="fill: #e22735; stroke: #c1272d; stroke-miterlimit: 10; stroke-width: 3px;"/>
  <circle cx="174.41" cy="161.87" r="24.73" style="fill: #e5e02c; stroke: #f7931e; stroke-miterlimit: 10; stroke-width: 3px;"/>
</svg>