<?xml version="1.0" encoding="UTF-8"?>
<svg id="Vrstva_1" data-name="Vrstva 1" xmlns="http://www.w3.org/2000/svg" viewBox="0 0 349.29 377.29">
  <path d="M76.3,11.39h204.16l50.05,43.47c-8.86,15.57-17.05,35.38-17.05,56.15,0,43.09,17.05,76.17,17.05,105.21,0,96.15-121.69,95.92-149.62,125.45-27.58-29.53-153.02-29.53-153.02-125.45,0-29.04,17.33-62.13,17.33-105.21,0-20.71-8.17-40.6-17.33-56.15L76.3,11.39Z" style="fill: #4444e2; stroke: #5e2d11; stroke-miterlimit: 10; stroke-width: 15px;"/>
  <polygon points="247.44 269.14 114.89 269.14 125.89 139.12 236.43 138.93 247.44 269.14" style="fill: #fff4ee; stroke: #282523; stroke-miterlimit: 10; stroke-width: 1.5px;"/>
  <polygon points="238.79 123.12 181.62 54.93 131.62 122.87 238.79 123.12" style="fill: #e53946; stroke: #282523; stroke-miterlimit: 10; stroke-width: 1.5px;"/>
  <polygon points="182.12 54.99 125.98 123.03 230.65 123.03 182.12 54.99" style="fill: #e53946; stroke: #282523; stroke-miterlimit: 10; stroke-width: 1.5px;"/>
  <polygon points="231.36 132.27 120.51 132.27 120.51 110.15 136.86 110.15 136.95 120.48 153.21 120.53 153.26 110.15 168.23 110.15 168.33 120.5 184.81 120.56 184.76 110.15 199.61 110.15 199.77 120.46 216.23 120.53 216.17 110.15 231.36 110.15 231.36 132.27" style="fill: #fff4ee; stroke: #282523; stroke-miterlimit: 10; stroke-width: 1.5px;"/>
  <rect x="231.36" y="110.12" width="10.31" height="22.15" style="fill: #fff; stroke: #282523; stroke-miterlimit: 10; stroke-width: 1.5px;"/>
  <polyline points="120.51 132.63 127.04 139.34 236.27 139.43 241.68 132.63" style="fill: #fff4ee; stroke: #282523; stroke-miterlimit: 10; stroke-width: 1.5px;"/>
  <line x1="125.14" y1="148.07" x2="236.74" y2="148.19" style="fill: #fff; stroke: #282523; stroke-miterlimit: 10; stroke-width: 1.5px;"/>
  <line x1="124.37" y1="156.64" x2="237.95" y2="156.77" style="fill: #fff; stroke: #282523; stroke-miterlimit: 10; stroke-width: 1.5px;"/>
  <line x1="123.47" y1="165.96" x2="238.79" y2="166.09" style="fill: #fff; stroke: #282523; stroke-miterlimit: 10; stroke-width: 1.5px;"/>
  <line x1="122.6" y1="174.04" x2="239.66" y2="174.16" style="fill: #fff; stroke: #282523; stroke-miterlimit: 10; stroke-width: 1.5px;"/>
  <line x1="121.85" y1="182.61" x2="239.9" y2="182.74" style="fill: #fff; stroke: #282523; stroke-miterlimit: 10; stroke-width: 1.5px;"/>
  <line x1="121.35" y1="191.62" x2="240.77" y2="191.75" style="fill: #fff; stroke: #282523; stroke-miterlimit: 10; stroke-width: 1.5px;"/>
  <line x1="120.61" y1="200.2" x2="241.4" y2="200.32" style="fill: #fff; stroke: #282523; stroke-miterlimit: 10; stroke-width: 1.5px;"/>
  <line x1="120.05" y1="209.52" x2="242.33" y2="209.64" style="fill: #fff; stroke: #282523; stroke-miterlimit: 10; stroke-width: 1.5px;"/>
  <line x1="119.05" y1="217.6" x2="243.07" y2="217.72" style="fill: #fff; stroke: #282523; stroke-miterlimit: 10; stroke-width: 1.5px;"/>
  <line x1="118.56" y1="226.17" x2="243.7" y2="226.29" style="fill: #fff; stroke: #282523; stroke-miterlimit: 10; stroke-width: 1.5px;"/>
  <line x1="117.62" y1="235.63" x2="244.35" y2="235.74" style="fill: #fff; stroke: #282523; stroke-miterlimit: 10; stroke-width: 1.5px;"/>
  <line x1="117.13" y1="243.69" x2="245.25" y2="243.82" style="fill: #fff; stroke: #282523; stroke-miterlimit: 10; stroke-width: 1.5px;"/>
  <line x1="116.76" y1="252.27" x2="245.86" y2="252.39" style="fill: #fff; stroke: #282523; stroke-miterlimit: 10; stroke-width: 1.5px;"/>
  <line x1="134.08" y1="148.07" x2="134.17" y2="139.79" style="fill: #fff; stroke: #282523; stroke-miterlimit: 10; stroke-width: 1.5px;"/>
  <line x1="151.27" y1="148.28" x2="151.36" y2="140" style="fill: #fff; stroke: #282523; stroke-miterlimit: 10; stroke-width: 1.5px;"/>
  <line x1="167.77" y1="148.56" x2="167.86" y2="140.28" style="fill: #fff; stroke: #282523; stroke-miterlimit: 10; stroke-width: 1.5px;"/>
  <line x1="185.29" y1="147.91" x2="185.38" y2="139.62" style="fill: #fff; stroke: #282523; stroke-miterlimit: 10; stroke-width: 1.5px;"/>
  <line x1="202.24" y1="148.44" x2="202.34" y2="140.16" style="fill: #fff; stroke: #282523; stroke-miterlimit: 10; stroke-width: 1.5px;"/>
  <line x1="219.24" y1="148.04" x2="219.33" y2="139.76" style="fill: #fff; stroke: #282523; stroke-miterlimit: 10; stroke-width: 1.5px;"/>
  <line x1="142.46" y1="156.59" x2="142.56" y2="148.31" style="fill: #fff; stroke: #282523; stroke-miterlimit: 10; stroke-width: 1.5px;"/>
  <line x1="159.41" y1="156.7" x2="159.5" y2="148.42" style="fill: #fff; stroke: #282523; stroke-miterlimit: 10; stroke-width: 1.5px;"/>
  <line x1="177.03" y1="156.36" x2="177.12" y2="148.07" style="fill: #fff; stroke: #282523; stroke-miterlimit: 10; stroke-width: 1.5px;"/>
  <line x1="193.8" y1="156.57" x2="193.89" y2="148.29" style="fill: #fff; stroke: #282523; stroke-miterlimit: 10; stroke-width: 1.5px;"/>
  <line x1="210.58" y1="156.57" x2="210.67" y2="148.29" style="fill: #fff; stroke: #282523; stroke-miterlimit: 10; stroke-width: 1.5px;"/>
  <line x1="219.99" y1="165.52" x2="220.08" y2="157.24" style="fill: #fff; stroke: #282523; stroke-miterlimit: 10; stroke-width: 1.5px;"/>
  <line x1="202.25" y1="165.79" x2="202.34" y2="157.51" style="fill: #fff; stroke: #282523; stroke-miterlimit: 10; stroke-width: 1.5px;"/>
  <line x1="190.18" y1="165.88" x2="190.23" y2="156.94" style="fill: #fff; stroke: #282523; stroke-miterlimit: 10; stroke-width: 1.5px;"/>
  <line x1="151.29" y1="165.93" x2="151.34" y2="156.99" style="fill: #fff; stroke: #282523; stroke-miterlimit: 10; stroke-width: 1.5px;"/>
  <line x1="133.96" y1="165.84" x2="134" y2="156.9" style="fill: #fff; stroke: #282523; stroke-miterlimit: 10; stroke-width: 1.5px;"/>
  <line x1="159.54" y1="174.68" x2="159.59" y2="165.74" style="fill: #fff; stroke: #282523; stroke-miterlimit: 10; stroke-width: 1.5px;"/>
  <line x1="142.58" y1="174.55" x2="142.63" y2="165.61" style="fill: #fff; stroke: #282523; stroke-miterlimit: 10; stroke-width: 1.5px;"/>
  <line x1="194.52" y1="174.55" x2="194.57" y2="165.61" style="fill: #fff; stroke: #282523; stroke-miterlimit: 10; stroke-width: 1.5px;"/>
  <line x1="210.85" y1="174.79" x2="210.9" y2="165.85" style="fill: #fff; stroke: #282523; stroke-miterlimit: 10; stroke-width: 1.5px;"/>
  <line x1="177.06" y1="157.06" x2="177.11" y2="148.12" style="fill: #fff; stroke: #282523; stroke-miterlimit: 10; stroke-width: 1.5px;"/>
  <line x1="159.38" y1="157.01" x2="159.42" y2="148.07" style="fill: #fff; stroke: #282523; stroke-miterlimit: 10; stroke-width: 1.5px;"/>
  <line x1="142.42" y1="156.96" x2="142.46" y2="148.02" style="fill: #fff; stroke: #282523; stroke-miterlimit: 10; stroke-width: 1.5px;"/>
  <g>
    <line x1="202.63" y1="182.59" x2="202.72" y2="174.31" style="fill: #fff; stroke: #282523; stroke-miterlimit: 10; stroke-width: 1.5px;"/>
    <line x1="219.4" y1="182.59" x2="219.5" y2="174.31" style="fill: #fff; stroke: #282523; stroke-miterlimit: 10; stroke-width: 1.5px;"/>
    <line x1="228.82" y1="191.53" x2="228.91" y2="183.25" style="fill: #fff; stroke: #282523; stroke-miterlimit: 10; stroke-width: 1.5px;"/>
    <line x1="211.08" y1="191.8" x2="211.17" y2="183.52" style="fill: #fff; stroke: #282523; stroke-miterlimit: 10; stroke-width: 1.5px;"/>
    <line x1="199" y1="191.9" x2="199.05" y2="182.96" style="fill: #fff; stroke: #282523; stroke-miterlimit: 10; stroke-width: 1.5px;"/>
    <line x1="160.12" y1="191.95" x2="160.17" y2="183.01" style="fill: #fff; stroke: #282523; stroke-miterlimit: 10; stroke-width: 1.5px;"/>
    <line x1="142.78" y1="191.85" x2="142.83" y2="182.91" style="fill: #fff; stroke: #282523; stroke-miterlimit: 10; stroke-width: 1.5px;"/>
    <line x1="168.37" y1="200.69" x2="168.41" y2="191.75" style="fill: #fff; stroke: #282523; stroke-miterlimit: 10; stroke-width: 1.5px;"/>
    <line x1="151.4" y1="200.57" x2="151.45" y2="191.63" style="fill: #fff; stroke: #282523; stroke-miterlimit: 10; stroke-width: 1.5px;"/>
    <line x1="203.35" y1="200.57" x2="203.4" y2="191.63" style="fill: #fff; stroke: #282523; stroke-miterlimit: 10; stroke-width: 1.5px;"/>
    <line x1="219.67" y1="200.8" x2="219.72" y2="191.86" style="fill: #fff; stroke: #282523; stroke-miterlimit: 10; stroke-width: 1.5px;"/>
    <line x1="185.89" y1="183.08" x2="185.94" y2="174.14" style="fill: #fff; stroke: #282523; stroke-miterlimit: 10; stroke-width: 1.5px;"/>
    <line x1="168.2" y1="183.02" x2="168.25" y2="174.08" style="fill: #fff; stroke: #282523; stroke-miterlimit: 10; stroke-width: 1.5px;"/>
    <line x1="151.24" y1="182.98" x2="151.29" y2="174.04" style="fill: #fff; stroke: #282523; stroke-miterlimit: 10; stroke-width: 1.5px;"/>
  </g>
  <line x1="193.87" y1="208.56" x2="193.96" y2="200.28" style="fill: #fff; stroke: #282523; stroke-miterlimit: 10; stroke-width: 1.5px;"/>
  <line x1="210.64" y1="208.56" x2="210.74" y2="200.28" style="fill: #fff; stroke: #282523; stroke-miterlimit: 10; stroke-width: 1.5px;"/>
  <line x1="220.06" y1="217.51" x2="220.15" y2="209.23" style="fill: #fff; stroke: #282523; stroke-miterlimit: 10; stroke-width: 1.5px;"/>
  <line x1="202.32" y1="217.78" x2="202.41" y2="209.49" style="fill: #fff; stroke: #282523; stroke-miterlimit: 10; stroke-width: 1.5px;"/>
  <line x1="185.12" y1="217.78" x2="185.16" y2="208.83" style="fill: #fff; stroke: #282523; stroke-miterlimit: 10; stroke-width: 1.5px;"/>
  <line x1="151.36" y1="217.92" x2="151.41" y2="208.98" style="fill: #fff; stroke: #282523; stroke-miterlimit: 10; stroke-width: 1.5px;"/>
  <line x1="134.02" y1="217.83" x2="134.07" y2="208.89" style="fill: #fff; stroke: #282523; stroke-miterlimit: 10; stroke-width: 1.5px;"/>
  <line x1="159.61" y1="226.67" x2="159.65" y2="217.72" style="fill: #fff; stroke: #282523; stroke-miterlimit: 10; stroke-width: 1.5px;"/>
  <line x1="142.64" y1="226.54" x2="142.69" y2="217.6" style="fill: #fff; stroke: #282523; stroke-miterlimit: 10; stroke-width: 1.5px;"/>
  <line x1="194.59" y1="226.54" x2="194.63" y2="217.6" style="fill: #fff; stroke: #282523; stroke-miterlimit: 10; stroke-width: 1.5px;"/>
  <line x1="210.91" y1="226.77" x2="210.96" y2="217.83" style="fill: #fff; stroke: #282523; stroke-miterlimit: 10; stroke-width: 1.5px;"/>
  <line x1="177.13" y1="209.05" x2="177.18" y2="200.11" style="fill: #fff; stroke: #282523; stroke-miterlimit: 10; stroke-width: 1.5px;"/>
  <line x1="159.44" y1="209" x2="159.49" y2="200.05" style="fill: #fff; stroke: #282523; stroke-miterlimit: 10; stroke-width: 1.5px;"/>
  <line x1="142.48" y1="208.95" x2="142.53" y2="200.01" style="fill: #fff; stroke: #282523; stroke-miterlimit: 10; stroke-width: 1.5px;"/>
  <g>
    <line x1="202.29" y1="234.75" x2="202.38" y2="226.47" style="fill: #fff; stroke: #282523; stroke-miterlimit: 10; stroke-width: 1.5px;"/>
    <line x1="219.06" y1="234.75" x2="219.16" y2="226.47" style="fill: #fff; stroke: #282523; stroke-miterlimit: 10; stroke-width: 1.5px;"/>
    <line x1="228.48" y1="243.7" x2="228.57" y2="235.42" style="fill: #fff; stroke: #282523; stroke-miterlimit: 10; stroke-width: 1.5px;"/>
    <line x1="210.74" y1="243.97" x2="210.83" y2="235.68" style="fill: #fff; stroke: #282523; stroke-miterlimit: 10; stroke-width: 1.5px;"/>
    <line x1="193.54" y1="244.06" x2="193.58" y2="235.12" style="fill: #fff; stroke: #282523; stroke-miterlimit: 10; stroke-width: 1.5px;"/>
    <line x1="159.78" y1="244.11" x2="159.82" y2="235.17" style="fill: #fff; stroke: #282523; stroke-miterlimit: 10; stroke-width: 1.5px;"/>
    <line x1="142.44" y1="244.02" x2="142.49" y2="235.07" style="fill: #fff; stroke: #282523; stroke-miterlimit: 10; stroke-width: 1.5px;"/>
    <line x1="168.03" y1="252.85" x2="168.07" y2="243.91" style="fill: #fff; stroke: #282523; stroke-miterlimit: 10; stroke-width: 1.5px;"/>
    <line x1="151.06" y1="252.73" x2="151.11" y2="243.79" style="fill: #fff; stroke: #282523; stroke-miterlimit: 10; stroke-width: 1.5px;"/>
    <line x1="203.01" y1="252.73" x2="203.05" y2="243.79" style="fill: #fff; stroke: #282523; stroke-miterlimit: 10; stroke-width: 1.5px;"/>
    <line x1="219.33" y1="252.96" x2="219.38" y2="244.02" style="fill: #fff; stroke: #282523; stroke-miterlimit: 10; stroke-width: 1.5px;"/>
    <line x1="185.55" y1="235.24" x2="185.59" y2="226.3" style="fill: #fff; stroke: #282523; stroke-miterlimit: 10; stroke-width: 1.5px;"/>
    <line x1="167.86" y1="235.19" x2="167.91" y2="226.24" style="fill: #fff; stroke: #282523; stroke-miterlimit: 10; stroke-width: 1.5px;"/>
    <line x1="150.9" y1="235.14" x2="150.95" y2="226.2" style="fill: #fff; stroke: #282523; stroke-miterlimit: 10; stroke-width: 1.5px;"/>
    <line x1="176.91" y1="244.18" x2="176.95" y2="235.23" style="fill: #fff; stroke: #282523; stroke-miterlimit: 10; stroke-width: 1.5px;"/>
    <line x1="176.91" y1="226.16" x2="176.95" y2="217.21" style="fill: #fff; stroke: #282523; stroke-miterlimit: 10; stroke-width: 1.5px;"/>
    <line x1="167.84" y1="218.08" x2="167.88" y2="209.14" style="fill: #fff; stroke: #282523; stroke-miterlimit: 10; stroke-width: 1.5px;"/>
    <line x1="185.11" y1="252.5" x2="185.16" y2="243.56" style="fill: #fff; stroke: #282523; stroke-miterlimit: 10; stroke-width: 1.5px;"/>
    <line x1="133.91" y1="252.25" x2="133.96" y2="243.31" style="fill: #fff; stroke: #282523; stroke-miterlimit: 10; stroke-width: 1.5px;"/>
    <line x1="125.09" y1="244.18" x2="125.13" y2="235.23" style="fill: #fff; stroke: #282523; stroke-miterlimit: 10; stroke-width: 1.5px;"/>
    <line x1="134.04" y1="235.48" x2="134.08" y2="226.54" style="fill: #fff; stroke: #282523; stroke-miterlimit: 10; stroke-width: 1.5px;"/>
    <line x1="124.84" y1="226.4" x2="124.89" y2="217.46" style="fill: #fff; stroke: #282523; stroke-miterlimit: 10; stroke-width: 1.5px;"/>
    <line x1="125.2" y1="209.46" x2="125.24" y2="200.52" style="fill: #fff; stroke: #282523; stroke-miterlimit: 10; stroke-width: 1.5px;"/>
    <line x1="134.24" y1="199.95" x2="134.28" y2="191.01" style="fill: #fff; stroke: #282523; stroke-miterlimit: 10; stroke-width: 1.5px;"/>
    <line x1="185.03" y1="200.14" x2="185.08" y2="191.2" style="fill: #fff; stroke: #282523; stroke-miterlimit: 10; stroke-width: 1.5px;"/>
    <line x1="124.92" y1="191.56" x2="124.96" y2="182.62" style="fill: #fff; stroke: #282523; stroke-miterlimit: 10; stroke-width: 1.5px;"/>
    <line x1="133.96" y1="182.9" x2="134" y2="173.95" style="fill: #fff; stroke: #282523; stroke-miterlimit: 10; stroke-width: 1.5px;"/>
    <line x1="239.28" y1="269.49" x2="226.67" y2="139.38" style="fill: #fff; stroke: #282523; stroke-miterlimit: 10; stroke-width: 1.5px;"/>
  </g>
  <rect x="164.69" y="153.77" width="25.35" height="41.01" style="fill: #fff4ee; stroke: #282523; stroke-miterlimit: 10; stroke-width: 1.5px;"/>
  <rect x="167.55" y="156.82" width="7.83" height="16.34" style="fill: #1c1a18;"/>
  <rect x="179.07" y="156.88" width="7.83" height="16.34" style="fill: #1c1a18;"/>
  <rect x="167.46" y="175.71" width="7.83" height="16.34" style="fill: #1c1a18;"/>
  <rect x="178.89" y="175.89" width="7.83" height="16.34" style="fill: #1c1a18;"/>
  <circle cx="181.73" cy="52.9" r="6.43" style="fill: #f4ef37; stroke: #282523; stroke-miterlimit: 10; stroke-width: 1.5px;"/>
</svg>